# xmcd
#
# Track frame offsets: 
#        150
#        16340
#        32640
#        51008
#        58121
#        70980
#        78158
#        86928
#        94864
#        107172
#        117400
#        129918
#        143679
#        157992
#        166344
#        181377
#        187814
#        196512
#        207020
#        218609
#        232458
#        250118
#        263965
#        274217
#        285136
#        297938
#        313648
#        321309
#        338087
#
# Disc length: 4623 seconds
#
# Revision: 0
# Processed by: cddbd v1.5.2PL0 Copyright (c) Steve Scherf et al.
# Submitted via: ExactAudioCopy v0.99pb1
#
DISCID=9e120d1d
DTITLE=Various Artist - The George Mitchell Collection, Volumes 1-7 - Disc 5
DYEAR=2008
DGENRE=Blues
TTITLE0=John Henry Barbee - That Ain't It
TTITLE1=Johny Henry Barbee - Gonna Lose Your Mind
TTITLE2=Albert Macon and Robert Thomas - Flat Foot Boogie
TTITLE3=Albert Macon and Robert Thomas - Mama Can I Lay It Down
TTITLE4=Albert Macon and Robert Thomas - How Can You Do It
TTITLE5=Jessie Clarence Gorman - John Henry
TTITLE6=Jessie Clarence Gorman - Goin' Up to the Country #1
TTITLE7=Jessie Clarence Gorman - Goin' Up to the Country #2
TTITLE8=Will Shade - Dirty Dozens
TTITLE9=Will Shade - Won't You Send Me John
TTITLE10=Will Shade - Wine Headed Man
TTITLE11=Will Shade and Charlie Burse - K.C. Blues
TTITLE12=Georgia Fife and Drum Band - Every Time I Come Around
TTITLE13=Georgia Fife and Drum Band - J.W.'s Special
TTITLE14=Georgia Fife and Drum Band - Old Hen Cackle
TTITLE15=Georgia Fife and Drum Band - Buck Dance
TTITLE16=Como Fife and Drum Band - Hey Freddie
TTITLE17=Como Fife and Drum Band - Late in the Evening
TTITLE18=Como Fife and Drum Band - Punky Tony
TTITLE19=Como Fife and Drum Band - Shimmy She Wa
TTITLE20=Maxwell Street Jimmy - You Got Reap What You Sow
TTITLE21=Maxwell Street Jimmy - Everything's Gonna Be Alright
TTITLE22=Precious Bryant - That's the Way the Good Thing Go
TTITLE23=Precious Bryant - Georgia Buck
TTITLE24=Precious Bryant - When the Saints Go Marching In
TTITLE25=Rosa Lee Hill - Pork and Beans
TTITLE26=Rosa Lee Hill - Count the Days I'm Gone
TTITLE27=Rosa Lee Hill - Roll and Tumble
TTITLE28=Rosa Lee Hill - Bullying Well
EXTD=
EXTT0=
EXTT1=
EXTT2=
EXTT3=
EXTT4=
EXTT5=
EXTT6=
EXTT7=
EXTT8=
EXTT9=
EXTT10=
EXTT11=
EXTT12=
EXTT13=
EXTT14=
EXTT15=
EXTT16=
EXTT17=
EXTT18=
EXTT19=
EXTT20=
EXTT21=
EXTT22=
EXTT23=
EXTT24=
EXTT25=
EXTT26=
EXTT27=
EXTT28=
PLAYORDER=
